<?xml version="1.0" encoding="utf-8"?>
<svg viewBox="0 0 400 100" xmlns="http://www.w3.org/2000/svg">
  <path d="M 28.173 75.726 L 16 75.726 L 16 24.274 L 46.661 24.274 L 45.414 32.945 L 28.173 32.945 L 28.173 46.605 L 43.185 46.605 L 43.185 55.303 L 28.173 55.303 L 28.173 75.726 Z M 97.47 24.274 L 101.316 75.726 L 89.381 75.726 L 88.478 55.597 C 88.233 50.804 88.107 46.526 88.107 42.76 C 88.107 39.873 88.179 37.155 88.32 34.591 L 80.388 70.315 L 68.877 70.315 L 60.419 34.591 C 60.703 38.886 60.84 42.945 60.84 46.765 C 60.84 49.628 60.77 52.627 60.629 55.756 L 59.729 75.726 L 47.846 75.726 L 51.717 24.274 L 67.101 24.274 L 74.817 59.177 L 82.007 24.274 L 97.47 24.274 Z" style="fill: rgb(51, 51, 51); white-space: pre;"/>
  <path d="M 126.199 24.274 L 157.76 24.274 L 156.489 32.945 L 138.373 32.945 L 138.373 45.28 L 154.206 45.28 L 154.206 53.82 L 138.373 53.82 L 138.373 66.975 L 157.76 66.975 L 157.76 75.726 L 126.199 75.726 L 126.199 24.274 Z M 204.911 24.274 L 204.911 75.726 L 189.396 75.726 L 174.543 35.837 C 175.038 39.76 175.417 43.218 175.683 46.209 C 175.966 49.196 176.108 52.751 176.108 56.869 L 176.108 75.726 L 165.26 75.726 L 165.26 24.274 L 180.406 24.274 L 195.627 64.217 C 194.549 57.428 194.009 51.042 194.009 45.067 L 194.009 24.274 L 204.911 24.274 Z M 214.495 24.274 L 246.056 24.274 L 244.783 32.945 L 226.668 32.945 L 226.668 45.28 L 242.5 45.28 L 242.5 53.82 L 226.668 53.82 L 226.668 66.975 L 246.056 66.975 L 246.056 75.726 L 214.495 75.726 L 214.495 24.274 Z M 281.032 75.726 L 270.473 56.048 L 265.73 56.048 L 265.73 75.726 L 253.553 75.726 L 253.553 24.274 L 270.424 24.274 C 277.444 24.274 282.721 25.554 286.258 28.12 C 289.811 30.7 291.586 34.635 291.586 39.921 C 291.586 43.245 290.792 46.013 289.201 48.222 C 287.61 50.417 285.107 52.279 281.695 53.82 L 294.77 75.726 L 281.032 75.726 Z M 265.73 32.813 L 265.73 47.667 L 270.846 47.667 C 273.571 47.667 275.614 47.048 276.975 45.808 C 278.334 44.57 279.016 42.608 279.016 39.921 C 279.016 37.448 278.292 35.643 276.839 34.511 C 275.373 33.378 273.128 32.813 270.104 32.813 L 265.73 32.813 Z M 320.685 23 C 327.316 23 333.037 25.103 337.846 29.313 L 331.666 35.784 C 329.845 34.387 328.158 33.378 326.601 32.76 C 325.027 32.142 323.23 31.833 321.215 31.833 C 317.396 31.833 314.347 33.334 312.066 36.341 C 309.784 39.33 308.644 43.864 308.644 49.947 C 308.644 56.543 309.51 61.213 311.242 63.951 C 312.977 66.709 315.681 68.089 319.36 68.089 C 321.924 68.089 324.248 67.513 326.335 66.365 L 326.335 54.721 L 319.651 54.721 L 318.457 46.102 L 338.135 46.102 L 338.135 71.563 C 335.467 73.294 332.521 74.632 329.306 75.567 C 326.087 76.522 322.87 77 319.651 77 C 311.818 77 305.921 74.713 301.961 70.132 C 297.999 65.55 296.021 58.824 296.021 49.947 C 296.021 44.307 297.1 39.463 299.254 35.414 C 301.41 31.347 304.356 28.258 308.087 26.155 C 311.834 24.055 316.035 23 320.685 23 Z M 371.172 24.274 L 384.034 24.274 L 367.538 56.419 L 367.538 75.726 L 355.363 75.726 L 355.363 56.498 L 338.867 24.274 L 352.184 24.274 L 361.676 46.923 L 371.172 24.274 Z" style="fill: rgb(64, 191, 136); white-space: pre;"/>
</svg>